<?xml version="1.0" encoding="UTF-8" standalone="no"?>
<!-- Created with Inkscape (http://www.inkscape.org/) -->

<svg
   width="38.2439mm"
   height="13.830815mm"
   viewBox="0 0 38.2439 13.830815"
   version="1.1"
   id="svg5"
   xmlns="http://www.w3.org/2000/svg"
   xmlns:svg="http://www.w3.org/2000/svg">
  <defs
     id="defs2" />
  <g
     id="layer1"
     transform="translate(-90.505992,-193.93869)">
    <g
       aria-label="bank.j"
       id="text992"
       style="font-size:10.5833px;line-height:1.25;stroke-width:0.264583">
      <path
         d="m 90.505992,204.37929 h 1.291163 v -0.75142 c 0.603248,0.64558 1.164163,0.889 2.031993,0.889 0.910164,0 1.629828,-0.33866 2.169577,-1.02658 0.444498,-0.5715 0.687914,-1.30175 0.687914,-2.08491 0,-1.77799 -1.259412,-3.10091 -2.95274,-3.10091 -0.772581,0 -1.269996,0.21167 -1.820328,0.75142 v -2.49766 h -1.407579 z m 3.026824,-4.78365 c 1.005413,0 1.735661,0.76199 1.735661,1.82032 0,1.0795 -0.698498,1.80975 -1.703911,1.80975 -1.02658,0 -1.735661,-0.75142 -1.735661,-1.82033 0,-1.05833 0.709081,-1.80974 1.703911,-1.80974 z"
         style="font-weight:bold;font-family:'URW Gothic';-inkscape-font-specification:'URW Gothic Bold'"
         id="path1744" />
      <path
         d="m 103.4282,198.51614 h -1.29116 v 0.78316 c -0.48683,-0.64558 -1.06892,-0.92074 -1.91558,-0.92074 -1.735661,0 -2.984491,1.30174 -2.984491,3.09032 0,1.76741 1.238246,3.04799 2.952741,3.04799 0.8255,0 1.38641,-0.254 1.94733,-0.89958 v 0.762 h 1.29116 z m -3.05857,1.15358 c 1.00541,0 1.72507,0.75141 1.72507,1.82033 0,0.42333 -0.16933,0.91016 -0.42333,1.20649 -0.28575,0.34925 -0.74083,0.52917 -1.28058,0.52917 -1.026577,0 -1.735659,-0.6985 -1.735659,-1.72508 0,-1.06891 0.709082,-1.83091 1.714499,-1.83091 z"
         style="font-weight:bold;font-family:'URW Gothic';-inkscape-font-specification:'URW Gothic Bold'"
         id="path1746" />
      <path
         d="m 104.47594,204.37929 h 1.40758 v -2.76224 c 0,-0.78317 0.0529,-1.12183 0.23284,-1.40758 0.22225,-0.34925 0.58208,-0.53975 1.03716,-0.53975 0.37042,0 0.65616,0.127 0.84666,0.37041 0.1905,0.254 0.27517,0.68792 0.27517,1.47108 v 2.86808 h 1.40758 v -3.14324 c 0,-1.04775 -0.10583,-1.55575 -0.42333,-2.01083 -0.381,-0.55033 -1.016,-0.84666 -1.83091,-0.84666 -0.67734,0 -1.13242,0.1905 -1.651,0.69849 v -0.56091 h -1.30175 z"
         style="font-weight:bold;font-family:'URW Gothic';-inkscape-font-specification:'URW Gothic Bold'"
         id="path1748" />
      <path
         d="m 110.82593,204.37929 h 1.40758 v -2.74108 l 2.00024,2.74108 h 1.89441 l -2.43416,-2.99508 2.0955,-2.86807 h -1.68275 l -1.87324,2.76224 v -4.72015 h -1.40758 z"
         style="font-weight:bold;font-family:'URW Gothic';-inkscape-font-specification:'URW Gothic Bold'"
         id="path1750" />
      <path
         d="m 117.02775,204.37929 h 1.40758 v -1.35466 h -1.40758 z"
         style="font-weight:bold;font-family:'URW Gothic';-inkscape-font-specification:'URW Gothic Bold'"
         id="path1752" />
      <path
         d="m 119.99108,198.51614 v 5.43982 c 0.0106,0.79374 -0.0635,0.93133 -0.58208,1.01599 v 1.36525 c 1.29116,-0.0212 2.03199,-0.889 1.98966,-2.34949 v -5.47157 z m 0,-0.635 h 1.40758 v -1.32291 h -1.40758 z"
         style="font-weight:bold;font-family:'URW Gothic';-inkscape-font-specification:'URW Gothic Bold'"
         id="path1754" />
    </g>
    <g
       aria-label="What could possibly go wrong?"
       id="text1000"
       style="font-size:1.75935px;line-height:1.25;stroke-width:0.0439838">
      <path
         d="m 91.804731,206.80431 h 0.19001 l 0.214641,-0.86033 0.209362,0.86033 h 0.19177 l 0.380019,-1.30016 h -0.246309 l -0.230475,0.90782 -0.218159,-0.90782 h -0.175935 l -0.221678,0.90782 -0.228716,-0.90782 h -0.246309 z"
         style="font-weight:bold;font-family:'URW Gothic';-inkscape-font-specification:'URW Gothic Bold'"
         id="path1866" />
      <path
         d="m 93.090814,206.80431 h 0.233994 v -0.49438 c 0,-0.0968 0.0088,-0.15131 0.03343,-0.19529 0.03519,-0.0598 0.09501,-0.0932 0.172416,-0.0932 0.137229,0 0.19001,0.0792 0.19001,0.28501 v 0.4979 h 0.233993 v -0.55068 c 0,-0.14251 -0.01759,-0.22168 -0.0651,-0.29381 -0.0651,-0.10028 -0.177694,-0.15482 -0.316683,-0.15482 -0.102042,0 -0.177694,0.0281 -0.248068,0.0915 v -0.39233 h -0.233994 z"
         style="font-weight:bold;font-family:'URW Gothic';-inkscape-font-specification:'URW Gothic Bold'"
         id="path1868" />
      <path
         d="m 95.13342,205.82963 h -0.21464 v 0.13019 c -0.08093,-0.10732 -0.177695,-0.15307 -0.318443,-0.15307 -0.288533,0 -0.496136,0.2164 -0.496136,0.51373 0,0.29382 0.205844,0.5067 0.490858,0.5067 0.13723,0 0.230475,-0.0422 0.323721,-0.14955 v 0.12668 h 0.21464 z m -0.508452,0.19177 c 0.167139,0 0.286774,0.12491 0.286774,0.3026 0,0.0704 -0.02815,0.15131 -0.07037,0.20057 -0.0475,0.0581 -0.123154,0.088 -0.212881,0.088 -0.170657,0 -0.288533,-0.11612 -0.288533,-0.28678 0,-0.17769 0.117876,-0.30436 0.285014,-0.30436 z"
         style="font-weight:bold;font-family:'URW Gothic';-inkscape-font-specification:'URW Gothic Bold'"
         id="path1870" />
      <path
         d="m 95.372692,206.80431 h 0.233994 v -0.7618 h 0.140748 v -0.21288 h -0.140748 v -0.32548 h -0.233994 v 0.32548 h -0.114358 v 0.21288 h 0.114358 z"
         style="font-weight:bold;font-family:'URW Gothic';-inkscape-font-specification:'URW Gothic Bold'"
         id="path1872" />
      <path
         d="m 97.05639,206.4841 c -0.05806,0.0897 -0.124914,0.12844 -0.221678,0.12844 -0.16186,0 -0.283255,-0.12668 -0.283255,-0.29733 0,-0.17242 0.114357,-0.29381 0.277977,-0.29381 0.105561,0 0.179454,0.044 0.226956,0.13371 h 0.263903 c -0.03343,-0.0985 -0.0651,-0.14955 -0.131952,-0.21113 -0.09501,-0.088 -0.223437,-0.13723 -0.358907,-0.13723 -0.288533,0 -0.51373,0.22344 -0.51373,0.51022 0,0.28325 0.232234,0.51021 0.520767,0.51021 0.228716,0 0.402891,-0.12492 0.483822,-0.34308 z"
         style="font-weight:bold;font-family:'URW Gothic';-inkscape-font-specification:'URW Gothic Bold'"
         id="path1874" />
      <path
         d="m 97.927267,205.80675 c -0.283255,0 -0.51549,0.23048 -0.51549,0.51022 0,0.28149 0.232235,0.51021 0.517249,0.51021 0.283256,0 0.519008,-0.22872 0.519008,-0.50318 0,-0.29029 -0.226956,-0.51725 -0.520767,-0.51725 z m 0.0018,0.21465 c 0.156582,0 0.283256,0.13195 0.283256,0.29557 0,0.16362 -0.126674,0.29557 -0.281496,0.29557 -0.158342,0 -0.283256,-0.13195 -0.283256,-0.29909 0,-0.1601 0.126673,-0.29205 0.281496,-0.29205 z"
         style="font-weight:bold;font-family:'URW Gothic';-inkscape-font-specification:'URW Gothic Bold'"
         id="path1876" />
      <path
         d="m 99.447344,205.82963 h -0.233993 v 0.45919 c 0,0.13019 -0.0088,0.19177 -0.03695,0.23399 -0.03343,0.0581 -0.09852,0.0897 -0.177694,0.0897 -0.05982,0 -0.105561,-0.0194 -0.137229,-0.0616 -0.03343,-0.0422 -0.0475,-0.1126 -0.0475,-0.24455 v -0.47678 h -0.233993 v 0.52252 c 0,0.16538 0.01935,0.25159 0.07389,0.33076 0.0651,0.0933 0.168898,0.14427 0.29733,0.14427 0.117877,0 0.19001,-0.0299 0.279737,-0.11612 v 0.0932 h 0.2164 z"
         style="font-weight:bold;font-family:'URW Gothic';-inkscape-font-specification:'URW Gothic Bold'"
         id="path1878" />
      <path
         d="m 99.635595,206.80431 h 0.233994 v -1.30016 h -0.233994 z"
         style="font-weight:bold;font-family:'URW Gothic';-inkscape-font-specification:'URW Gothic Bold'"
         id="path1880" />
      <path
         d="m 101.04131,205.50415 h -0.23399 v 0.41168 c -0.0686,-0.0756 -0.18121,-0.12139 -0.30261,-0.12139 -0.27446,0 -0.4891,0.22871 -0.4891,0.52077 0,0.29029 0.21113,0.51197 0.4891,0.51197 0.13195,0 0.22696,-0.044 0.32196,-0.14955 v 0.12668 h 0.21464 z m -0.50493,0.50493 c 0.16362,0 0.28853,0.13019 0.28853,0.30261 0,0.1689 -0.12491,0.30085 -0.28325,0.30085 -0.16362,0 -0.29029,-0.13371 -0.29029,-0.30789 0,-0.16714 0.12491,-0.29557 0.28501,-0.29557 z"
         style="font-weight:bold;font-family:'URW Gothic';-inkscape-font-specification:'URW Gothic Bold'"
         id="path1882" />
      <path
         d="m 101.71163,207.12979 h 0.23399 v -0.41697 c 0.0897,0.0792 0.17946,0.11436 0.29909,0.11436 0.2815,0 0.48734,-0.21816 0.48734,-0.51373 0,-0.29381 -0.20408,-0.5067 -0.48382,-0.5067 -0.13371,0 -0.24631,0.0475 -0.32196,0.13723 v -0.11435 h -0.21464 z m 0.50493,-1.10839 c 0.15834,0 0.27974,0.12843 0.27974,0.29733 0,0.16537 -0.1214,0.29381 -0.27622,0.29381 -0.16538,0 -0.28853,-0.12668 -0.28853,-0.29733 0,-0.16714 0.12315,-0.29381 0.28501,-0.29381 z"
         style="font-weight:bold;font-family:'URW Gothic';-inkscape-font-specification:'URW Gothic Bold'"
         id="path1884" />
      <path
         d="m 103.34606,205.80675 c -0.28325,0 -0.51548,0.23048 -0.51548,0.51022 0,0.28149 0.23223,0.51021 0.51724,0.51021 0.28326,0 0.51901,-0.22872 0.51901,-0.50318 0,-0.29029 -0.22695,-0.51725 -0.52077,-0.51725 z m 0.002,0.21465 c 0.15659,0 0.28326,0.13195 0.28326,0.29557 0,0.16362 -0.12667,0.29557 -0.2815,0.29557 -0.15834,0 -0.28325,-0.13195 -0.28325,-0.29909 0,-0.1601 0.12667,-0.29205 0.28149,-0.29205 z"
         style="font-weight:bold;font-family:'URW Gothic';-inkscape-font-specification:'URW Gothic Bold'"
         id="path1886" />
      <path
         d="m 103.9372,206.49466 c 0.0106,0.095 0.0264,0.14603 0.0651,0.19705 0.0633,0.0845 0.17418,0.13547 0.29205,0.13547 0.19529,0 0.34835,-0.14603 0.34835,-0.33252 0,-0.14778 -0.0739,-0.2252 -0.27094,-0.28501 -0.0968,-0.0299 -0.0968,-0.0299 -0.11963,-0.0405 -0.0281,-0.0141 -0.0457,-0.037 -0.0457,-0.0669 0,-0.0457 0.0387,-0.0809 0.0897,-0.0809 0.0493,0 0.0809,0.0264 0.0915,0.0774 h 0.22871 c -0.004,-0.0827 -0.0229,-0.13195 -0.0704,-0.18474 -0.0616,-0.0686 -0.15306,-0.10732 -0.24983,-0.10732 -0.18297,0 -0.32372,0.1302 -0.32372,0.29733 0,0.14251 0.0756,0.22344 0.27094,0.28854 0.088,0.0299 0.0968,0.0334 0.1214,0.0493 0.0282,0.0176 0.044,0.044 0.044,0.0756 0,0.0545 -0.044,0.095 -0.10556,0.095 -0.0686,0 -0.10732,-0.0352 -0.13019,-0.11788 z"
         style="font-weight:bold;font-family:'URW Gothic';-inkscape-font-specification:'URW Gothic Bold'"
         id="path1888" />
      <path
         d="m 104.72012,206.49466 c 0.0106,0.095 0.0264,0.14603 0.0651,0.19705 0.0633,0.0845 0.17418,0.13547 0.29205,0.13547 0.19529,0 0.34835,-0.14603 0.34835,-0.33252 0,-0.14778 -0.0739,-0.2252 -0.27094,-0.28501 -0.0968,-0.0299 -0.0968,-0.0299 -0.11963,-0.0405 -0.0281,-0.0141 -0.0457,-0.037 -0.0457,-0.0669 0,-0.0457 0.0387,-0.0809 0.0897,-0.0809 0.0493,0 0.0809,0.0264 0.0915,0.0774 h 0.22871 c -0.004,-0.0827 -0.0229,-0.13195 -0.0704,-0.18474 -0.0616,-0.0686 -0.15306,-0.10732 -0.24983,-0.10732 -0.18297,0 -0.32372,0.1302 -0.32372,0.29733 0,0.14251 0.0756,0.22344 0.27094,0.28854 0.088,0.0299 0.0968,0.0334 0.1214,0.0493 0.0282,0.0176 0.044,0.044 0.044,0.0756 0,0.0545 -0.044,0.095 -0.10556,0.095 -0.0686,0 -0.10732,-0.0352 -0.13019,-0.11788 z"
         style="font-weight:bold;font-family:'URW Gothic';-inkscape-font-specification:'URW Gothic Bold'"
         id="path1890" />
      <path
         d="m 105.55581,206.80431 h 0.23399 v -0.97468 h -0.23399 z m 0,-1.08024 h 0.23399 v -0.21992 h -0.23399 z"
         style="font-weight:bold;font-family:'URW Gothic';-inkscape-font-specification:'URW Gothic Bold'"
         id="path1892" />
      <path
         d="m 105.97805,206.80431 h 0.21464 v -0.12492 c 0.10028,0.10732 0.19353,0.14779 0.3378,0.14779 0.1513,0 0.27094,-0.0563 0.36066,-0.17066 0.0739,-0.095 0.11436,-0.2164 0.11436,-0.34659 0,-0.29557 -0.20936,-0.51549 -0.49086,-0.51549 -0.12843,0 -0.21112,0.0352 -0.30261,0.12491 v -0.4152 h -0.23399 z m 0.50318,-0.79523 c 0.16713,0 0.28853,0.12667 0.28853,0.30261 0,0.17945 -0.11612,0.30085 -0.28326,0.30085 -0.17065,0 -0.28853,-0.12492 -0.28853,-0.30261 0,-0.17594 0.11788,-0.30085 0.28326,-0.30085 z"
         style="font-weight:bold;font-family:'URW Gothic';-inkscape-font-specification:'URW Gothic Bold'"
         id="path1894" />
      <path
         d="m 107.13922,206.80431 h 0.234 v -1.30016 h -0.234 z"
         style="font-weight:bold;font-family:'URW Gothic';-inkscape-font-specification:'URW Gothic Bold'"
         id="path1896" />
      <path
         d="m 107.6424,207.12979 h 0.25158 l 0.563,-1.30016 h -0.27094 l -0.234,0.6316 -0.2164,-0.6316 h -0.26742 l 0.35715,0.88319 z"
         style="font-weight:bold;font-family:'URW Gothic';-inkscape-font-specification:'URW Gothic Bold'"
         id="path1898" />
      <path
         d="m 109.82223,205.82963 v 0.12315 c -0.0739,-0.0985 -0.17769,-0.14603 -0.31844,-0.14603 -0.27622,0 -0.4803,0.21465 -0.4803,0.50318 0,0.30085 0.20056,0.51725 0.47854,0.51725 0.13723,0 0.22872,-0.044 0.3202,-0.15131 -0.009,0.20937 -0.0985,0.31141 -0.2727,0.31141 -0.10908,0 -0.17593,-0.0282 -0.24455,-0.1038 h -0.26566 c 0.0792,0.19528 0.26214,0.30964 0.50142,0.30964 0.17593,0 0.31492,-0.0616 0.40641,-0.17769 0.0686,-0.0897 0.0985,-0.20936 0.0985,-0.39586 v -0.78994 z m -0.29205,0.19177 c 0.16714,0 0.2815,0.11963 0.2815,0.29908 0,0.17594 -0.10908,0.29206 -0.27798,0.29206 -0.16714,0 -0.27446,-0.11436 -0.27446,-0.29206 0,-0.17945 0.10732,-0.29908 0.27094,-0.29908 z"
         style="font-weight:bold;font-family:'URW Gothic';-inkscape-font-specification:'URW Gothic Bold'"
         id="path1900" />
      <path
         d="m 110.70894,205.80675 c -0.28325,0 -0.51549,0.23048 -0.51549,0.51022 0,0.28149 0.23224,0.51021 0.51725,0.51021 0.28326,0 0.51901,-0.22872 0.51901,-0.50318 0,-0.29029 -0.22696,-0.51725 -0.52077,-0.51725 z m 0.002,0.21465 c 0.15658,0 0.28326,0.13195 0.28326,0.29557 0,0.16362 -0.12668,0.29557 -0.2815,0.29557 -0.15834,0 -0.28325,-0.13195 -0.28325,-0.29909 0,-0.1601 0.12667,-0.29205 0.28149,-0.29205 z"
         style="font-weight:bold;font-family:'URW Gothic';-inkscape-font-specification:'URW Gothic Bold'"
         id="path1902" />
      <path
         d="m 112.12522,206.80431 h 0.14427 l 0.18825,-0.63161 0.18473,0.63161 h 0.14603 l 0.35187,-0.97468 h -0.24983 l -0.1777,0.59466 -0.1601,-0.59466 h -0.18649 l -0.16362,0.59466 -0.17417,-0.59466 h -0.25159 z"
         style="font-weight:bold;font-family:'URW Gothic';-inkscape-font-specification:'URW Gothic Bold'"
         id="path1904" />
      <path
         d="m 113.24592,206.80431 h 0.234 v -0.54188 c -0.005,-0.14427 0.0686,-0.2252 0.20936,-0.23048 v -0.2252 h -0.0176 c -0.10029,0 -0.14955,0.0282 -0.21113,0.11788 v -0.095 h -0.21464 z"
         style="font-weight:bold;font-family:'URW Gothic';-inkscape-font-specification:'URW Gothic Bold'"
         id="path1906" />
      <path
         d="m 114.24875,205.80675 c -0.28325,0 -0.51549,0.23048 -0.51549,0.51022 0,0.28149 0.23224,0.51021 0.51725,0.51021 0.28326,0 0.51901,-0.22872 0.51901,-0.50318 0,-0.29029 -0.22696,-0.51725 -0.52077,-0.51725 z m 0.002,0.21465 c 0.15658,0 0.28326,0.13195 0.28326,0.29557 0,0.16362 -0.12668,0.29557 -0.2815,0.29557 -0.15834,0 -0.28325,-0.13195 -0.28325,-0.29909 0,-0.1601 0.12667,-0.29205 0.28149,-0.29205 z"
         style="font-weight:bold;font-family:'URW Gothic';-inkscape-font-specification:'URW Gothic Bold'"
         id="path1908" />
      <path
         d="m 114.90147,206.80431 h 0.234 v -0.45919 c 0,-0.1302 0.009,-0.1865 0.0387,-0.234 0.0369,-0.0581 0.0968,-0.0897 0.17242,-0.0897 0.0616,0 0.10908,0.0211 0.14075,0.0616 0.0317,0.0422 0.0457,0.11436 0.0457,0.24455 v 0.47679 h 0.23399 v -0.52253 c 0,-0.17418 -0.0176,-0.25863 -0.0704,-0.33428 -0.0633,-0.0915 -0.1689,-0.14075 -0.30437,-0.14075 -0.1126,0 -0.18825,0.0317 -0.27446,0.11612 v -0.0932 h -0.2164 z"
         style="font-weight:bold;font-family:'URW Gothic';-inkscape-font-specification:'URW Gothic Bold'"
         id="path1910" />
      <path
         d="m 116.7136,205.82963 v 0.12315 c -0.0739,-0.0985 -0.17769,-0.14603 -0.31844,-0.14603 -0.27622,0 -0.4803,0.21465 -0.4803,0.50318 0,0.30085 0.20056,0.51725 0.47854,0.51725 0.13723,0 0.22872,-0.044 0.3202,-0.15131 -0.009,0.20937 -0.0985,0.31141 -0.2727,0.31141 -0.10908,0 -0.17593,-0.0282 -0.24455,-0.1038 h -0.26566 c 0.0792,0.19528 0.26215,0.30964 0.50142,0.30964 0.17593,0 0.31492,-0.0616 0.40641,-0.17769 0.0686,-0.0897 0.0985,-0.20936 0.0985,-0.39586 v -0.78994 z m -0.29205,0.19177 c 0.16714,0 0.2815,0.11963 0.2815,0.29908 0,0.17594 -0.10908,0.29206 -0.27798,0.29206 -0.16714,0 -0.27446,-0.11436 -0.27446,-0.29206 0,-0.17945 0.10732,-0.29908 0.27094,-0.29908 z"
         style="font-weight:bold;font-family:'URW Gothic';-inkscape-font-specification:'URW Gothic Bold'"
         id="path1912" />
      <path
         d="m 117.56513,206.47531 c 0,-0.15307 0.0176,-0.19353 0.11435,-0.27622 0.13723,-0.1214 0.17946,-0.19705 0.17946,-0.31492 0,-0.23048 -0.1689,-0.4029 -0.39586,-0.4029 -0.12667,0 -0.24279,0.0563 -0.31668,0.15307 -0.051,0.0651 -0.0756,0.13899 -0.0845,0.2551 h 0.234 c 0.0158,-0.11963 0.0668,-0.17593 0.16186,-0.17593 0.0968,0 0.16713,0.0686 0.16713,0.16362 0,0.0545 -0.0264,0.1038 -0.0792,0.14954 -0.17417,0.14251 -0.2164,0.23048 -0.21464,0.44864 z m -0.234,0.329 h 0.234 v -0.2252 h -0.234 z"
         style="font-weight:bold;font-family:'URW Gothic';-inkscape-font-specification:'URW Gothic Bold'"
         id="path1914" />
    </g>
    <g
       aria-label="$"
       transform="rotate(11.101134)"
       id="text1806"
       style="font-size:13.3873px;fill:#23770e;stroke:#b4b400;stroke-width:0.334682">
      <g
         id="path1808">
        <path
           style="color:#000000;-inkscape-font-specification:'URW Gothic Bold';stroke:none;-inkscape-stroke:none"
           d="m 157.94248,174.94299 v 0.17404 c 0,1.19147 0.83002,2.16874 2.15536,2.54358 v 1.76713 h 1.70019 v -1.76713 c 1.24502,-0.34807 1.96793,-1.3655 1.96793,-2.74439 0,-0.85679 -0.25436,-1.53954 -0.7363,-1.95455 -0.29452,-0.26775 -0.61582,-0.42839 -1.39228,-0.69614 -0.69614,-0.25436 -0.92372,-0.36146 -1.13792,-0.53549 -0.25436,-0.17404 -0.38823,-0.46856 -0.38823,-0.80324 0,-0.50872 0.32129,-0.85679 0.78985,-0.85679 0.45517,0 0.76307,0.29452 0.87017,0.83002 h 1.6868 c -0.0402,-1.13792 -0.74969,-2.12858 -1.66002,-2.30262 v -1.78051 h -1.70019 v 1.78051 c -1.09776,0.24097 -1.76712,1.1647 -1.76712,2.43649 0,1.16469 0.58904,1.99471 1.72696,2.40971 1.16469,0.44178 1.16469,0.44178 1.40566,0.60243 0.37485,0.24097 0.52211,0.50872 0.52211,0.93711 0,0.64259 -0.48194,1.11115 -1.12453,1.11115 -0.64259,0 -1.08438,-0.44178 -1.12454,-1.15131 z"
           id="path1813" />
        <path
           style="color:#000000;-inkscape-font-specification:'URW Gothic Bold';fill:#b4b400;stroke:none;-inkscape-stroke:none"
           d="m 159.92969,166.65039 v 1.86914 c -1.07425,0.31265 -1.76563,1.2468 -1.76563,2.51367 0,1.22111 0.64801,2.13512 1.83594,2.56836 0.57972,0.2199 0.87276,0.33024 1.04102,0.40235 0.16863,0.0723 0.20959,0.10131 0.33007,0.18164 l 0.002,0.002 c 0.34419,0.22126 0.44531,0.40488 0.44531,0.79492 0,0.55892 -0.39579,0.94531 -0.95703,0.94531 -0.28295,0 -0.50659,-0.0936 -0.66992,-0.25976 -0.16334,-0.16613 -0.26888,-0.41222 -0.28711,-0.73438 l -0.01,-0.1582 h -2.11914 v 0.16797 0.17383 c 0,1.22201 0.85985,2.20658 2.1543,2.6289 v 1.84961 h 2.03515 v -1.85547 c 1.21835,-0.40687 1.96875,-1.44334 1.96875,-2.82421 0,-0.88918 -0.26714,-1.62477 -0.79492,-2.08008 -0.31405,-0.28473 -0.66686,-0.45941 -1.44726,-0.72852 h 0.004 c -0.69296,-0.2532 -0.89459,-0.34917 -1.08984,-0.50781 l -0.006,-0.004 -0.006,-0.004 c -0.20433,-0.13981 -0.31445,-0.37401 -0.31445,-0.66407 0,-0.21913 0.0667,-0.38974 0.17382,-0.50586 0.10709,-0.11611 0.25443,-0.18359 0.44727,-0.18359 0.19149,0 0.33502,0.0551 0.45117,0.16602 0.11616,0.11088 0.2072,0.286 0.25586,0.52929 l 0.0274,0.13282 h 1.99609 l -0.006,-0.17188 c -0.0402,-1.13937 -0.73284,-2.10005 -1.66016,-2.36914 v -1.875 z m 0.33593,0.33398 h 1.36524 v 1.75196 l 0.13672,0.0254 c 0.76121,0.14553 1.35756,0.98464 1.46484,1.9707 h -1.36523 c -0.0653,-0.21977 -0.14105,-0.43079 -0.28516,-0.56836 -0.17836,-0.17025 -0.41796,-0.26172 -0.68164,-0.26172 -0.27572,0 -0.52266,0.10592 -0.69336,0.29102 -0.1707,0.1851 -0.26367,0.44479 -0.26367,0.73437 0,0.37772 0.15709,0.72694 0.45898,0.93555 0.23188,0.18722 0.48307,0.30477 1.17774,0.55859 l 0.002,0.002 c 0.77041,0.26566 1.06159,0.4127 1.33594,0.66211 v 0.002 h 0.002 c 0.43524,0.37479 0.67774,1.00446 0.67774,1.82813 0,1.3204 -0.66399,2.25415 -1.84375,2.58398 l -0.12305,0.0332 v 1.72657 h -1.36524 V 177.5332 L 160.14258,177.5 c -1.26965,-0.35909 -2.03321,-1.26906 -2.03321,-2.38281 v -0.008 h 1.52149 c 0.0487,0.30708 0.13152,0.59897 0.32226,0.79297 0.22825,0.23215 0.54856,0.35938 0.90821,0.35938 0.72393,0 1.29101,-0.55304 1.29101,-1.2793 0,-0.46674 -0.19214,-0.81549 -0.59765,-1.07617 -0.1197,-0.0798 -0.20075,-0.13096 -0.38282,-0.20898 -0.18277,-0.0783 -0.47234,-0.18927 -1.05468,-0.41016 h -0.002 c -1.0879,-0.39676 -1.61718,-1.14564 -1.61718,-2.25391 0,-1.21307 0.61057,-2.04666 1.63476,-2.27148 l 0.13281,-0.0293 z"
           id="path1815" />
      </g>
    </g>
  </g>
</svg>
